<svg width="800" height="450" xmlns="http://www.w3.org/2000/svg" fill-rule="evenodd" clip-rule="evenodd" stroke-linejoin="round" stroke-miterlimit="1.414"><path d="M539.04 178.613l.975 100.893h89.898c111.36 5.496 88.957-91.799 88.957-137.793 0-49.31-31.72-73.964-95.159-73.964h-83.965zm-78.781 100.982l-.366-211.644-193.462 211.644zm.028 67.749H200.599L95.039 450H0L429.121 0h213.362c47.904 0 85.881 12.742 113.933 38.225 28.051 25.484 42.077 59.565 42.077 102.245 0 44.751 14.057 124.53-43.696 171.356-29.13 23.618-71.531 35.428-127.202 35.428h-87.58V450h-79.728z"/></svg>