<?xml version="1.0" standalone="no"?>
<!DOCTYPE svg PUBLIC "-//W3C//DTD SVG 1.1//EN" "http://www.w3.org/Graphics/SVG/1.1/DTD/svg11.dtd">
<svg width="100%" height="100%" viewBox="0 0 1000 1000" version="1.1" xmlns="http://www.w3.org/2000/svg" xmlns:xlink="http://www.w3.org/1999/xlink" xml:space="preserve" style="fill-rule:evenodd;clip-rule:evenodd;stroke-linecap:square;stroke-miterlimit:1.41421;">
    <g id="Background" transform="matrix(0.794608,0,0,0.962974,103.941,18.5128)">
        <path d="M1000,0L266.385,0L265.12,203.188L0,203.37L0,1000L1000,1000L1000,0Z" style="fill:white;"/>
    </g>
    <g id="Image" transform="matrix(0.794608,0,0,0.794608,180.569,185.392)">
        <g id="TerraceFront" transform="matrix(1,0,0,1,-105.627,1.87157)">
            <g transform="matrix(1.02541,0,0,0.997682,-16.2161,14.5319)">
                <rect x="24.779" y="737.828" width="975.221" height="249.93" style="fill:none;stroke-width:1.66px;stroke:black;"/>
            </g>
            <g id="DiningTableOut2">
                <g transform="matrix(4.8364e-14,1.13217,-1.13217,4.8475e-14,1754.95,288.341)">
                    <path d="M587.115,832.879C587.115,821.218 577.648,811.751 565.987,811.751L480.972,811.751C469.311,811.751 459.844,821.218 459.844,832.879L459.844,875.136C459.844,886.797 469.311,896.264 480.972,896.264L565.987,896.264C577.648,896.264 587.115,886.797 587.115,875.136L587.115,832.879Z" style="fill:rgb(204,204,204);stroke-width:1.48px;stroke:black;"/>
                </g>
                <g id="Chair" transform="matrix(-0.0275878,-0.999619,0.999619,-0.0275878,247.454,1628.3)">
                    <path d="M756.219,616.081C766.221,616.081 774.33,617.072 774.33,626.93C774.33,636.787 766.221,644.778 756.219,644.778C746.216,644.778 738.108,636.787 738.108,626.93C738.108,617.072 746.216,616.081 756.219,616.081Z" style="fill:rgb(204,204,204);stroke-width:1.68px;stroke:black;"/>
                    <g transform="matrix(1.13163,0,0,1,-99.5406,3.69652)">
                        <path d="M774.33,626.93C774.33,636.787 766.221,644.778 756.219,644.778C746.216,644.778 738.108,636.787 738.108,626.93" style="fill:rgb(204,204,204);stroke-width:1.57px;stroke:black;"/>
                    </g>
                </g>
                <g id="Chair1" transform="matrix(0.0154117,-0.999881,-0.999881,-0.0154117,1337.6,1622.49)">
                    <path d="M756.219,616.081C766.221,616.081 774.33,617.072 774.33,626.93C774.33,636.787 766.221,644.778 756.219,644.778C746.216,644.778 738.108,636.787 738.108,626.93C738.108,617.072 746.216,616.081 756.219,616.081Z" style="fill:rgb(204,204,204);stroke-width:1.68px;stroke:black;"/>
                    <g transform="matrix(1.13163,0,0,1,-99.5406,3.69652)">
                        <path d="M774.33,626.93C774.33,636.787 766.221,644.778 756.219,644.778C746.216,644.778 738.108,636.787 738.108,626.93" style="fill:rgb(204,204,204);stroke-width:1.57px;stroke:black;"/>
                    </g>
                </g>
                <g id="Chair2" transform="matrix(-0.0275878,-0.999619,0.999619,-0.0275878,249.262,1680.36)">
                    <path d="M756.219,616.081C766.221,616.081 774.33,617.072 774.33,626.93C774.33,636.787 766.221,644.778 756.219,644.778C746.216,644.778 738.108,636.787 738.108,626.93C738.108,617.072 746.216,616.081 756.219,616.081Z" style="fill:rgb(204,204,204);stroke-width:1.68px;stroke:black;"/>
                    <g transform="matrix(1.13163,0,0,1,-99.5406,3.69652)">
                        <path d="M774.33,626.93C774.33,636.787 766.221,644.778 756.219,644.778C746.216,644.778 738.108,636.787 738.108,626.93" style="fill:rgb(204,204,204);stroke-width:1.57px;stroke:black;"/>
                    </g>
                </g>
                <g id="Chair3" transform="matrix(0.0154117,-0.999881,-0.999881,-0.0154117,1336.42,1674.57)">
                    <path d="M756.219,616.081C766.221,616.081 774.33,617.072 774.33,626.93C774.33,636.787 766.221,644.778 756.219,644.778C746.216,644.778 738.108,636.787 738.108,626.93C738.108,617.072 746.216,616.081 756.219,616.081Z" style="fill:rgb(204,204,204);stroke-width:1.68px;stroke:black;"/>
                    <g transform="matrix(1.13163,0,0,1,-99.5406,3.69652)">
                        <path d="M774.33,626.93C774.33,636.787 766.221,644.778 756.219,644.778C746.216,644.778 738.108,636.787 738.108,626.93" style="fill:rgb(204,204,204);stroke-width:1.57px;stroke:black;"/>
                    </g>
                </g>
            </g>
        </g>
        <g id="Bedroom1" transform="matrix(1,0,0,1,-96.4353,1.87157)">
            <g id="Bed">
                <g transform="matrix(1,0,0,1,0,-39)">
                    <path d="M0,460.293L143.036,460.293L143.036,645.683C142.901,655.084 138.956,661.655 126.628,661.997L0,661.997L0,460.293" style="fill:rgb(204,204,204);stroke-width:1.68px;stroke:black;"/>
                </g>
                <g transform="matrix(1.17332,0,0,1.20766,128.579,-97.9229)">
                    <path d="M-53.934,448.316C-53.934,443.756 -57.744,440.054 -62.438,440.054L-93.15,440.054C-97.844,440.054 -101.654,443.756 -101.654,448.316L-101.654,464.84C-101.654,469.401 -97.844,473.103 -93.15,473.103L-62.438,473.103C-57.744,473.103 -53.934,469.401 -53.934,464.84L-53.934,448.316Z" style="fill:rgb(239,239,239);stroke-width:1.41px;stroke:black;"/>
                </g>
                <g transform="matrix(1.17332,0,0,1.20766,193.399,-97.8068)">
                    <path d="M-53.934,448.316C-53.934,443.756 -57.744,440.054 -62.438,440.054L-93.15,440.054C-97.844,440.054 -101.654,443.756 -101.654,448.316L-101.654,464.84C-101.654,469.401 -97.844,473.103 -93.15,473.103L-62.438,473.103C-57.744,473.103 -53.934,469.401 -53.934,464.84L-53.934,448.316Z" style="fill:rgb(239,239,239);stroke-width:1.41px;stroke:black;"/>
                </g>
                <g transform="matrix(2.50887,0,0,3.85944,264.343,-1216.13)">
                    <path d="M-53.934,443.587C-53.934,441.637 -56.369,440.054 -59.368,440.054L-96.22,440.054C-99.219,440.054 -101.654,441.637 -101.654,443.587L-101.654,469.57C-101.654,471.52 -99.219,473.103 -96.22,473.103L-59.368,473.103C-56.369,473.103 -53.934,471.52 -53.934,469.57L-53.934,443.587Z" style="fill:rgb(239,239,239);stroke-width:0.52px;stroke:black;"/>
                </g>
            </g>
            <g id="Table">
                <g id="Chair4" transform="matrix(-0.520154,-0.854073,0.854073,-0.520154,124.504,1548.27)">
                    <path d="M756.219,616.081C766.221,616.081 774.33,617.072 774.33,626.93C774.33,636.787 766.221,644.778 756.219,644.778C746.216,644.778 738.108,636.787 738.108,626.93C738.108,617.072 746.216,616.081 756.219,616.081Z" style="fill:rgb(204,204,204);stroke-width:1.68px;stroke:black;"/>
                    <g transform="matrix(1.13163,0,0,1,-99.5406,3.69652)">
                        <path d="M774.33,626.93C774.33,636.787 766.221,644.778 756.219,644.778C746.216,644.778 738.108,636.787 738.108,626.93" style="fill:rgb(204,204,204);stroke-width:1.57px;stroke:black;"/>
                    </g>
                </g>
                <g id="Chair5" transform="matrix(-0.520154,0.854073,0.854073,0.520154,128.255,-280.92)">
                    <path d="M756.219,616.081C766.221,616.081 774.33,617.072 774.33,626.93C774.33,636.787 766.221,644.778 756.219,644.778C746.216,644.778 738.108,636.787 738.108,626.93C738.108,617.072 746.216,616.081 756.219,616.081Z" style="fill:rgb(204,204,204);stroke-width:1.68px;stroke:black;"/>
                    <g transform="matrix(1.13163,0,0,1,-99.5406,3.69652)">
                        <path d="M774.33,626.93C774.33,636.787 766.221,644.778 756.219,644.778C746.216,644.778 738.108,636.787 738.108,626.93" style="fill:rgb(204,204,204);stroke-width:1.57px;stroke:black;"/>
                    </g>
                </g>
                <g transform="matrix(1,0,0,1,3.53744,28.3187)">
                    <circle cx="252.277" cy="603.891" r="32.544" style="fill:rgb(204,204,204);stroke-width:1.68px;stroke:black;"/>
                </g>
            </g>
            <g transform="matrix(0.965804,0,0,1.13432,0,-100.825)">
                <path d="M-3.909,753.978L-3.909,456.964L207.287,456.964L207.287,463.621L3.909,463.621L3.909,747.321L311.044,747.321L311.044,463.621L297.418,463.621L297.418,456.964L318.862,456.964L318.862,753.978L-3.909,753.978Z" style="fill:black;"/>
            </g>
            <g transform="matrix(1.30966,-3.23255e-16,-1.80242e-16,1.46614,-823.854,507.442)">
                <rect x="691.141" y="161.824" width="121.453" height="8.584" style="fill:rgb(204,204,204);stroke-width:1.21px;stroke:black;"/>
            </g>
        </g>
        <g id="Bedroom2" transform="matrix(1,0,0,1,-96.4353,1.87157)">
            <g id="Bed1" transform="matrix(-1,0,0,1,265.12,-386.938)">
                <g transform="matrix(1,0,0,1,0,-39)">
                    <path d="M0,460.293L143.036,460.293L143.036,645.683C142.901,655.084 138.956,661.655 126.628,661.997L0,661.997L0,460.293" style="fill:rgb(204,204,204);stroke-width:1.68px;stroke:black;"/>
                </g>
                <g transform="matrix(1.17332,0,0,1.20766,128.579,-97.9229)">
                    <path d="M-53.934,448.316C-53.934,443.756 -57.744,440.054 -62.438,440.054L-93.15,440.054C-97.844,440.054 -101.654,443.756 -101.654,448.316L-101.654,464.84C-101.654,469.401 -97.844,473.103 -93.15,473.103L-62.438,473.103C-57.744,473.103 -53.934,469.401 -53.934,464.84L-53.934,448.316Z" style="fill:rgb(239,239,239);stroke-width:1.41px;stroke:black;"/>
                </g>
                <g transform="matrix(1.17332,0,0,1.20766,193.399,-97.8068)">
                    <path d="M-53.934,448.316C-53.934,443.756 -57.744,440.054 -62.438,440.054L-93.15,440.054C-97.844,440.054 -101.654,443.756 -101.654,448.316L-101.654,464.84C-101.654,469.401 -97.844,473.103 -93.15,473.103L-62.438,473.103C-57.744,473.103 -53.934,469.401 -53.934,464.84L-53.934,448.316Z" style="fill:rgb(239,239,239);stroke-width:1.41px;stroke:black;"/>
                </g>
                <g transform="matrix(2.50887,0,0,3.85944,264.343,-1216.13)">
                    <path d="M-53.934,443.587C-53.934,441.637 -56.369,440.054 -59.368,440.054L-96.22,440.054C-99.219,440.054 -101.654,441.637 -101.654,443.587L-101.654,469.57C-101.654,471.52 -99.219,473.103 -96.22,473.103L-59.368,473.103C-56.369,473.103 -53.934,471.52 -53.934,469.57L-53.934,443.587Z" style="fill:rgb(239,239,239);stroke-width:0.52px;stroke:black;"/>
                </g>
            </g>
            <g>
                <g transform="matrix(1,0,0,1.18547,0,-124.37)">
                    <path d="M268.896,362.377L268.895,362.377L188.846,362.366L188.846,374.684L181.295,374.684L181.295,355.996L181.296,355.996L261.345,356.006L261.345,137.077L3.775,137.077L3.775,457.108L200.731,457.108L200.731,463.477L-3.775,463.477L-3.775,130.707L268.896,130.707L268.896,362.377Z" style="fill:black;"/>
                </g>
                <g transform="matrix(1.25848,0,0,1.25848,-130.808,-235.184)">
                    <rect x="248" y="510" width="6" height="14.642" style="fill:black;"/>
                </g>
            </g>
            <g transform="matrix(2.98627e-16,1.04784,-1.46614,-7.36259e-17,243.549,-581.016)">
                <rect x="691.141" y="161.824" width="121.453" height="8.584" style="fill:rgb(204,204,204);stroke-width:1.32px;stroke:black;"/>
            </g>
        </g>
        <g id="LivingRoom" transform="matrix(1,0,0,1,-96.4353,1.87157)">
            <g id="Kitchen">
                <path d="M386.247,503.357L386.247,638.872L304.183,638.872L304.183,421.293L488.195,421.293C488.591,497.727 494.405,503.375 461.676,503.357L386.247,503.357Z" style="fill:rgb(204,204,204);stroke-width:1.68px;stroke:black;"/>
                <g id="Herd">
                    <g transform="matrix(0.968989,0,0,1.12948,13.1376,-64.7425)">
                        <path d="M459.777,448.763C459.777,445.189 456.394,442.287 452.228,442.287L395.595,442.287C391.428,442.287 388.046,445.189 388.046,448.763L388.046,493.524C388.046,497.098 391.428,500 395.595,500L452.228,500C456.394,500 459.777,497.098 459.777,493.524L459.777,448.763Z" style="fill:rgb(239,239,239);stroke-width:1.59px;stroke:black;"/>
                    </g>
                    <ellipse cx="406.96" cy="452.784" rx="10.449" ry="10.497" style="fill:rgb(51,51,51);stroke-width:1.68px;stroke:black;"/>
                    <g transform="matrix(1,0,0,1,31.6825,0)">
                        <ellipse cx="406.96" cy="452.784" rx="10.449" ry="10.497" style="fill:rgb(51,51,51);stroke-width:1.68px;stroke:black;"/>
                    </g>
                    <g transform="matrix(1,0,0,1,31.6825,30.8608)">
                        <ellipse cx="406.96" cy="452.784" rx="10.449" ry="10.497" style="fill:rgb(51,51,51);stroke-width:1.68px;stroke:black;"/>
                    </g>
                    <g transform="matrix(1,0,0,1,0,31.1632)">
                        <ellipse cx="406.96" cy="452.784" rx="10.449" ry="10.497" style="fill:rgb(51,51,51);stroke-width:1.68px;stroke:black;"/>
                    </g>
                </g>
            </g>
            <g id="Couch">
                <path d="M1000,750.649L723.705,750.649L723.705,683.343C723.817,673.598 728.183,668.94 736.803,669.371L918.721,669.371L918.721,598.638C918.412,589.308 922.645,585.086 931.421,585.971L1000,585.971L1000,750.649Z" style="fill:rgb(204,204,204);stroke-width:1.68px;stroke:black;"/>
                <g transform="matrix(0.850842,0,0,1,146.655,-0.820615)">
                    <rect x="751.781" y="586.066" width="123.35" height="60.793" style="fill:rgb(204,204,204);stroke-width:1.81px;stroke:black;"/>
                </g>
                <g transform="matrix(1,0,0,1,-3.1998,-2.84217e-14)">
                    <path d="M795.452,731.806C795.452,728.339 792.638,725.524 789.171,725.524L737.186,725.524C733.719,725.524 730.905,728.339 730.905,731.806L730.905,744.368C730.905,747.835 733.719,750.649 737.186,750.649L789.171,750.649C792.638,750.649 795.452,747.835 795.452,744.368L795.452,731.806Z" style="fill:rgb(239,239,239);stroke-width:1.68px;stroke:black;"/>
                </g>
                <path d="M1000,744.71C1000,748.179 997.188,750.991 993.719,750.991L941.733,750.991C938.264,750.991 935.452,748.179 935.452,744.71L935.452,732.147C935.452,728.678 938.264,725.866 941.733,725.866L974.875,725.866L974.875,692.383C974.875,688.914 977.687,686.102 981.156,686.102L993.719,686.102C997.188,686.102 1000,688.914 1000,692.383L1000,744.71Z" style="fill:rgb(239,239,239);stroke-width:1.68px;stroke:black;"/>
                <g transform="matrix(1,0,0,1,66.3999,0.341476)">
                    <path d="M795.452,731.806C795.452,728.339 792.638,725.524 789.171,725.524L737.186,725.524C733.719,725.524 730.905,728.339 730.905,731.806L730.905,744.368C730.905,747.835 733.719,750.649 737.186,750.649L789.171,750.649C792.638,750.649 795.452,747.835 795.452,744.368L795.452,731.806Z" style="fill:rgb(239,239,239);stroke-width:1.68px;stroke:black;"/>
                </g>
                <g transform="matrix(1,0,0,1,135.286,-2.84217e-14)">
                    <path d="M795.452,731.806C795.452,728.339 792.638,725.524 789.171,725.524L737.186,725.524C733.719,725.524 730.905,728.339 730.905,731.806L730.905,744.368C730.905,747.835 733.719,750.649 737.186,750.649L789.171,750.649C792.638,750.649 795.452,747.835 795.452,744.368L795.452,731.806Z" style="fill:rgb(239,239,239);stroke-width:1.68px;stroke:black;"/>
                </g>
                <g transform="matrix(6.12323e-17,1,-1,6.12323e-17,1725.52,-114.936)">
                    <path d="M795.452,731.806C795.452,728.339 792.638,725.524 789.171,725.524L737.186,725.524C733.719,725.524 730.905,728.339 730.905,731.806L730.905,744.368C730.905,747.835 733.719,750.649 737.186,750.649L789.171,750.649C792.638,750.649 795.452,747.835 795.452,744.368L795.452,731.806Z" style="fill:rgb(239,239,239);stroke-width:1.68px;stroke:black;"/>
                </g>
            </g>
            <g id="Fireplace" transform="matrix(0.598742,0,0,0.645704,1068.24,149.262)">
                <path d="M-333.938,421.293L-113.968,421.293L-113.968,626.687L-213.655,626.687L-333.938,514.374L-333.938,421.293Z" style="fill:rgb(204,204,204);stroke-width:2.69px;stroke:black;"/>
            </g>
            <g id="Walls">
                <g transform="matrix(1.01572,0,0,1.13432,-15.7219,-100.825)">
                    <path d="M311.236,753.978L311.236,456.964L540.376,456.964L540.376,463.621L318.67,463.621L318.67,747.321L996.283,747.321L996.283,463.621L644.513,463.621L644.513,456.964L1003.72,456.964L1003.72,753.978L311.236,753.978Z" style="fill:black;"/>
                </g>
                <g transform="matrix(6.12323e-17,1,-1,6.12323e-17,947.406,334.689)">
                    <rect x="300.407" y="519.727" width="7.551" height="127.271" style="fill:black;"/>
                </g>
            </g>
            <g id="Cupboard" transform="matrix(1.11496,0,0,1,-95.9272,-2.84217e-14)">
                <rect x="675.591" y="421.293" width="158.857" height="41.989" style="fill:rgb(204,204,204);stroke-width:1.58px;stroke:black;"/>
            </g>
            <g id="DiningTable">
                <g transform="matrix(0.893151,0.449758,-0.449758,0.893151,384.742,-183.134)">
                    <rect x="500" y="544.844" width="91.792" height="122.159" style="fill:rgb(204,204,204);stroke-width:1.68px;stroke:black;"/>
                </g>
                <g id="Chair6" transform="matrix(0.468171,-0.883638,0.883638,0.468171,-238.645,981.846)">
                    <path d="M756.219,616.081C766.221,616.081 774.33,617.072 774.33,626.93C774.33,636.787 766.221,644.778 756.219,644.778C746.216,644.778 738.108,636.787 738.108,626.93C738.108,617.072 746.216,616.081 756.219,616.081Z" style="fill:rgb(204,204,204);stroke-width:1.68px;stroke:black;"/>
                    <g transform="matrix(1.13163,0,0,1,-99.5406,3.69652)">
                        <path d="M774.33,626.93C774.33,636.787 766.221,644.778 756.219,644.778C746.216,644.778 738.108,636.787 738.108,626.93" style="fill:rgb(204,204,204);stroke-width:1.57px;stroke:black;"/>
                    </g>
                </g>
                <g id="Chair7" transform="matrix(-0.468171,0.883638,-0.883638,-0.468171,1440.56,221.541)">
                    <path d="M756.219,616.081C766.221,616.081 774.33,617.072 774.33,626.93C774.33,636.787 766.221,644.778 756.219,644.778C746.216,644.778 738.108,636.787 738.108,626.93C738.108,617.072 746.216,616.081 756.219,616.081Z" style="fill:rgb(204,204,204);stroke-width:1.68px;stroke:black;"/>
                    <g transform="matrix(1.13163,0,0,1,-99.5406,3.69652)">
                        <path d="M774.33,626.93C774.33,636.787 766.221,644.778 756.219,644.778C746.216,644.778 738.108,636.787 738.108,626.93" style="fill:rgb(204,204,204);stroke-width:1.57px;stroke:black;"/>
                    </g>
                </g>
                <g id="Chair8" transform="matrix(0.468171,-0.883638,0.883638,0.468171,-262.703,1028.05)">
                    <path d="M756.219,616.081C766.221,616.081 774.33,617.072 774.33,626.93C774.33,636.787 766.221,644.778 756.219,644.778C746.216,644.778 738.108,636.787 738.108,626.93C738.108,617.072 746.216,616.081 756.219,616.081Z" style="fill:rgb(204,204,204);stroke-width:1.68px;stroke:black;"/>
                    <g transform="matrix(1.13163,0,0,1,-99.5406,3.69652)">
                        <path d="M774.33,626.93C774.33,636.787 766.221,644.778 756.219,644.778C746.216,644.778 738.108,636.787 738.108,626.93" style="fill:rgb(204,204,204);stroke-width:1.57px;stroke:black;"/>
                    </g>
                </g>
                <g id="Chair9" transform="matrix(-0.468171,0.883638,-0.883638,-0.468171,1464.62,175.34)">
                    <path d="M756.219,616.081C766.221,616.081 774.33,617.072 774.33,626.93C774.33,636.787 766.221,644.778 756.219,644.778C746.216,644.778 738.108,636.787 738.108,626.93C738.108,617.072 746.216,616.081 756.219,616.081Z" style="fill:rgb(204,204,204);stroke-width:1.68px;stroke:black;"/>
                    <g transform="matrix(1.13163,0,0,1,-99.5406,3.69652)">
                        <path d="M774.33,626.93C774.33,636.787 766.221,644.778 756.219,644.778C746.216,644.778 738.108,636.787 738.108,626.93" style="fill:rgb(204,204,204);stroke-width:1.57px;stroke:black;"/>
                    </g>
                </g>
            </g>
            <g id="WindowsDoor">
                <g transform="matrix(1.56217,-3.38759e-16,-1.58356e-16,1.37678,-353.237,522.409)">
                    <rect x="691.141" y="161.824" width="121.453" height="8.584" style="fill:rgb(204,204,204);stroke-width:1.14px;stroke:black;"/>
                </g>
                <g transform="matrix(1.30966,-2.84003e-16,-1.58356e-16,1.37678,-395.97,522.285)">
                    <rect x="691.141" y="161.824" width="121.453" height="8.584" style="fill:rgb(204,204,204);stroke-width:1.25px;stroke:black;"/>
                </g>
                <g transform="matrix(1,1.22465e-16,1.22465e-16,-1,119.026,1171)">
                    <path d="M196.293,425.793L196.293,521.993C262.567,515.678 289.32,480.581 291.49,425.793L196.293,425.793Z" style="fill:none;stroke-width:1.68px;stroke:black;"/>
                </g>
                <g id="(Rectangle)" transform="matrix(1,1.22465e-16,6.10302e-17,-0.498349,561.431,1009.21)">
                    <rect x="-246.81" y="511.707" width="96.657" height="18.06" style="fill:rgb(204,204,204);stroke-width:2.12px;stroke:black;"/>
                </g>
            </g>
        </g>
        <g id="TerraceBack" transform="matrix(1,0,0,1,-96.4353,1.87157)">
            <g id="Stairs" transform="matrix(1,0,0,1,0,-2.51696)">
                <g transform="matrix(1.25848,0,0,1.00668,-120.049,-179.756)">
                    <rect x="306.205" y="189.592" width="98.725" height="23.099" style="fill:rgb(179,179,179);stroke-width:1.47px;stroke:black;"/>
                </g>
                <g transform="matrix(1.25848,0,0,1.00668,-120.049,-203.009)">
                    <rect x="306.205" y="189.592" width="98.725" height="23.099" style="fill:rgb(191,191,191);stroke-width:1.47px;stroke:black;"/>
                </g>
                <g transform="matrix(1.25848,0,0,1.00668,-120.049,-226.262)">
                    <rect x="306.205" y="189.592" width="98.725" height="23.099" style="fill:rgb(204,204,204);stroke-width:1.47px;stroke:black;"/>
                </g>
                <g transform="matrix(1.25848,0,0,1.00668,-120.049,-249.674)">
                    <rect x="306.205" y="189.592" width="98.725" height="23.099" style="fill:rgb(217,217,217);stroke-width:1.47px;stroke:black;"/>
                </g>
            </g>
            <g id="DiningTableOut">
                <g id="Chair10" transform="matrix(0.0154117,-0.999881,-0.999881,-0.0154117,1183.06,708.304)">
                    <path d="M756.219,616.081C766.221,616.081 774.33,617.072 774.33,626.93C774.33,636.787 766.221,644.778 756.219,644.778C746.216,644.778 738.108,636.787 738.108,626.93C738.108,617.072 746.216,616.081 756.219,616.081Z" style="fill:rgb(204,204,204);stroke-width:1.68px;stroke:black;"/>
                    <g transform="matrix(1.13163,0,0,1,-99.5406,3.69652)">
                        <path d="M774.33,626.93C774.33,636.787 766.221,644.778 756.219,644.778C746.216,644.778 738.108,636.787 738.108,626.93" style="fill:rgb(204,204,204);stroke-width:1.57px;stroke:black;"/>
                    </g>
                </g>
                <g id="Chair11" transform="matrix(-0.999881,0.0154117,-0.0154117,-0.999881,1396.42,501.309)">
                    <path d="M756.219,616.081C766.221,616.081 774.33,617.072 774.33,626.93C774.33,636.787 766.221,644.778 756.219,644.778C746.216,644.778 738.108,636.787 738.108,626.93C738.108,617.072 746.216,616.081 756.219,616.081Z" style="fill:rgb(204,204,204);stroke-width:1.68px;stroke:black;"/>
                    <g transform="matrix(1.13163,0,0,1,-99.5406,3.69652)">
                        <path d="M774.33,626.93C774.33,636.787 766.221,644.778 756.219,644.778C746.216,644.778 738.108,636.787 738.108,626.93" style="fill:rgb(204,204,204);stroke-width:1.57px;stroke:black;"/>
                    </g>
                </g>
                <g id="Chair12" transform="matrix(-0.0154117,-0.999881,0.999881,-0.0154117,165.444,710.744)">
                    <path d="M756.219,616.081C766.221,616.081 774.33,617.072 774.33,626.93C774.33,636.787 766.221,644.778 756.219,644.778C746.216,644.778 738.108,636.787 738.108,626.93C738.108,617.072 746.216,616.081 756.219,616.081Z" style="fill:rgb(204,204,204);stroke-width:1.68px;stroke:black;"/>
                    <g transform="matrix(1.13163,0,0,1,-99.5406,3.69652)">
                        <path d="M774.33,626.93C774.33,636.787 766.221,644.778 756.219,644.778C746.216,644.778 738.108,636.787 738.108,626.93" style="fill:rgb(204,204,204);stroke-width:1.57px;stroke:black;"/>
                    </g>
                </g>
                <g id="Chair13" transform="matrix(-0.999881,0.0154117,-0.0154117,-0.999881,1477.45,501.309)">
                    <path d="M756.219,616.081C766.221,616.081 774.33,617.072 774.33,626.93C774.33,636.787 766.221,644.778 756.219,644.778C746.216,644.778 738.108,636.787 738.108,626.93C738.108,617.072 746.216,616.081 756.219,616.081Z" style="fill:rgb(204,204,204);stroke-width:1.68px;stroke:black;"/>
                    <g transform="matrix(1.13163,0,0,1,-99.5406,3.69652)">
                        <path d="M774.33,626.93C774.33,636.787 766.221,644.778 756.219,644.778C746.216,644.778 738.108,636.787 738.108,626.93" style="fill:rgb(204,204,204);stroke-width:1.57px;stroke:black;"/>
                    </g>
                </g>
                <g transform="matrix(1.25848,0,0,1.38506,-120.049,-258.671)">
                    <rect x="560.409" y="180.809" width="140.042" height="19.529" style="fill:rgb(204,204,204);stroke-width:1.27px;stroke:black;"/>
                </g>
                <g transform="matrix(1.25848,0,0,1.25848,-120.049,-233.312)">
                    <path d="M560.252,200.338L701.106,200.338L707.106,209.567L555.252,209.567L560.252,200.338Z" style="fill:rgb(204,204,204);stroke-width:1.33px;stroke:black;"/>
                </g>
                <g transform="matrix(1.09682,0,0,1.36121,-12.9597,-253.86)">
                    <rect x="545.374" y="114.858" width="160.684" height="58.725" style="fill:rgb(204,204,204);stroke-width:1.36px;stroke:black;"/>
                </g>
            </g>
            <g>
                <g transform="matrix(1.27045,0,0,1.25848,-130.703,-233.312)">
                    <rect x="311.706" y="17.026" width="578.294" height="195.664" style="fill:none;stroke-width:1.33px;stroke:black;"/>
                </g>
                <g transform="matrix(1.25848,0,0,1.25848,-130.808,-235.184)">
                    <rect x="311.755" y="211.177" width="104.725" height="6" style="fill:black;"/>
                </g>
            </g>
            <g id="(Rectangle)1" transform="matrix(1,1.22465e-16,6.10302e-17,-0.498349,525.611,293.863)">
                <rect x="-246.81" y="511.707" width="96.657" height="18.06" style="fill:rgb(204,204,204);stroke-width:2.12px;stroke:black;"/>
            </g>
        </g>
        <g id="Bathroom" transform="matrix(1,0,0,1,-96.4353,1.87157)">
            <g>
                <g transform="matrix(1.06816,0,0,1.0828,-36.1765,-19.1162)">
                    <path d="M449.517,63.292L467.594,63.353C467.594,63.353 469.517,82.357 469.517,86.943C469.517,99.567 460.541,109.8 449.468,109.8C438.395,109.8 429.419,99.567 429.419,86.943C429.419,82.357 432.362,63.425 432.362,63.425L449.517,63.292Z" style="fill:rgb(204,204,204);stroke-width:1.56px;stroke:black;"/>
                </g>
                <g transform="matrix(1,0,0,1,-7.37823,-5.72705)">
                    <path d="M430.878,40.454L472.8,40.454L470.8,55.204L432.878,55.204L430.878,40.454Z" style="fill:rgb(204,204,204);stroke-width:1.68px;stroke:black;"/>
                </g>
            </g>
            <g>
                <path d="M566.813,34.354L657.329,34.354L657.329,124.667L585.568,124.667L566.813,107.254L566.813,34.354Z" style="fill:rgb(204,204,204);stroke-width:1.68px;stroke:black;"/>
                <g transform="matrix(0.819628,0,0,0.819628,110.326,14.3415)">
                    <path d="M566.813,34.354L657.329,34.354L657.329,124.667L585.568,124.667L566.813,107.254L566.813,34.354Z" style="fill:rgb(239,239,239);stroke-width:2.05px;stroke:black;"/>
                </g>
            </g>
            <g>
                <g transform="matrix(1,0,0,1,85.3898,-20.4525)">
                    <path d="M571.94,246.126C567.927,247.579 564.105,248.276 560.124,248.276C541.251,248.276 525.952,232.603 525.952,213.269C525.952,193.936 541.251,178.263 560.124,178.263C564.105,178.263 567.927,178.96 571.94,180.413L571.94,246.126Z" style="fill:rgb(204,204,204);stroke-width:1.68px;stroke:black;"/>
                </g>
                <g transform="matrix(0.749411,0,0,0.820684,221.95,17.7901)">
                    <path d="M565.268,246.126C561.255,247.579 564.105,248.276 560.124,248.276C541.251,248.276 525.952,232.603 525.952,213.269C525.952,193.936 541.251,178.263 560.124,178.263C564.105,178.263 561.255,178.96 565.268,180.413L565.268,246.126Z" style="fill:rgb(239,239,239);stroke-width:2.14px;stroke:black;"/>
                </g>
            </g>
            <g transform="matrix(1,0,0,1,0,-39)">
                <path d="M653.554,336.26L653.554,77.13L393.013,77.13L393.013,230.743L385.462,230.743L385.462,69.579L661.105,69.579L661.105,343.811L385.462,343.811L385.462,316.282L393.013,316.282L393.013,336.26L653.554,336.26Z" style="fill:black;"/>
            </g>
            <g transform="matrix(0.494505,-1.22055e-16,-1.80242e-16,1.46614,72.3199,-209.195)">
                <rect x="691.141" y="161.824" width="121.453" height="8.584" style="fill:rgb(204,204,204);stroke-width:1.53px;stroke:black;"/>
            </g>
        </g>
        <g id="Bedroom3" transform="matrix(1,0,0,1,-96.4353,1.87157)">
            <g id="Bed2" transform="matrix(-3.6451e-16,-1.28676,-1,2.83277e-16,1421.29,285.426)">
                <g transform="matrix(1,0,0,1,0,-39)">
                    <path d="M0,460.293L143.036,460.293L143.036,645.683C142.901,655.084 138.956,661.655 126.628,661.997L17.408,661.997C7.022,661.688 1.219,653.975 0,638.859L0,460.293" style="fill:rgb(204,204,204);stroke-width:1.46px;stroke:black;"/>
                </g>
                <g transform="matrix(1.17332,0,0,1.20766,130.911,-97.9229)">
                    <path d="M-53.934,448.316C-53.934,443.756 -56.895,440.054 -60.543,440.054L-95.045,440.054C-98.693,440.054 -101.654,443.756 -101.654,448.316L-101.654,464.84C-101.654,469.401 -98.693,473.103 -95.045,473.103L-60.543,473.103C-56.895,473.103 -53.934,469.401 -53.934,464.84L-53.934,448.316Z" style="fill:rgb(239,239,239);stroke-width:1.23px;stroke:black;"/>
                </g>
                <g transform="matrix(1.17332,0,0,1.20766,195.73,-97.8068)">
                    <path d="M-53.934,448.316C-53.934,443.756 -56.895,440.054 -60.543,440.054L-95.045,440.054C-98.693,440.054 -101.654,443.756 -101.654,448.316L-101.654,464.84C-101.654,469.401 -98.693,473.103 -95.045,473.103L-60.543,473.103C-56.895,473.103 -53.934,469.401 -53.934,464.84L-53.934,448.316Z" style="fill:rgb(239,239,239);stroke-width:1.23px;stroke:black;"/>
                </g>
                <g transform="matrix(2.50887,0,0,3.85944,266.675,-1216.13)">
                    <path d="M-53.934,443.817C-53.934,441.74 -55.95,440.054 -58.433,440.054L-97.155,440.054C-99.638,440.054 -101.654,441.74 -101.654,443.817L-101.654,469.339C-101.654,471.416 -99.638,473.103 -97.155,473.103L-58.433,473.103C-55.95,473.103 -53.934,471.416 -53.934,469.339L-53.934,443.817Z" style="fill:rgb(239,239,239);stroke-width:0.47px;stroke:black;"/>
                </g>
            </g>
            <g id="(Kurve)" transform="matrix(1,0,0,1,-2.84217e-14,-39)">
                <path d="M996.225,456.517L996.225,77.13L661.105,77.13L661.105,356.994L653.554,356.994L653.554,69.579L1003.77,69.579L1003.77,464.068L653.554,464.068L653.554,443.536L661.105,443.536L661.105,456.517L996.225,456.517Z" style="fill:black;"/>
            </g>
            <g transform="matrix(1.04784,8.5329e-17,1.78859e-16,1.46614,68.5707,-209.195)">
                <rect x="691.141" y="161.824" width="121.453" height="8.584" style="fill:rgb(204,204,204);stroke-width:1.32px;stroke:black;"/>
            </g>
        </g>
        <g transform="matrix(1.25848,0,0,1.25848,-216.484,-231.441)">
            <g id="Hallway">
                <path d="M515.325,520.154L327.062,520.154L327.062,596.172C274.956,591.207 253.595,563.852 251.438,520.154L242.874,520.154L242.874,511.819L170.013,511.819C174.864,460.914 201.083,439.353 242.874,436.366L242.874,424.597L306.059,424.597L306.059,212.69L317.721,212.69L317.721,287.695C369.641,282.748 391.036,255.57 393.298,212.69L404.683,212.69L404.683,333.983C447.268,336.423 474.211,357.861 479.135,409.534L404.683,409.534L404.683,424.597L617.711,424.597L617.711,434.607C659.539,437.255 686.171,458.747 691.063,510.091L617.711,510.091L617.711,520.154L606.407,520.154" style="fill:none;stroke-width:1.33px;stroke:black;"/>
            </g>
        </g>
    </g>
    <g id="Targets">
        <rect class="click-target" id="bed1" x="103.941" y="521.642" width="241.706" height="260.959" style=""/>
        <rect class="click-target" id="bed2" x="103.941" y="214.177" width="210.667" height="307.464" style=""/>
        <rect class="click-target" id="bed3" x="626.26" y="214.177" width="272.289" height="307.464" style=""/>
        <rect class="click-target" id="living" x="345.647" y="521.642" width="552.902" height="261.981" style=""/>
        <rect class="click-target" id="bath" x="414" y="214.177" width="212.26" height="211.823" style=""/>
        <rect class="click-target" id="front-terr" x="103.941" y="783.623" width="794.608" height="197.865" style=""/>
        <rect class="click-target" id="back-terr" x="310" y="20" width="587" height="190.177" style=""/>
    </g>
</svg>
