<svg viewBox="0 0 1000 1000" xmlns="http://www.w3.org/2000/svg" fill-rule="evenodd" clip-rule="evenodd" stroke-linecap="square" stroke-miterlimit="1.414"><path d="M898.549 18.513H315.613l-1.006 195.665-210.666.175v767.134h794.608V18.513z" fill="#fff"/><path fill="none" stroke-width="1.66" stroke="#000" d="M24.779 737.828H1000v249.93H24.779z" transform="matrix(.8148 0 0 .79277 83.751 198.426)"/><path d="M741.851 944.183c10.49 0 19.007-8.517 19.007-19.007v-76.482c0-10.49-8.516-19.008-19.007-19.008h-38.016c-10.49 0-19.007 8.517-19.007 19.008v76.482c0 10.49 8.517 19.007 19.007 19.007h38.016z" fill="#ccc" stroke-width="1.331" stroke="#000"/><path d="M766.045 866.565c-.22-7.944.39-14.407 8.22-14.623 7.83-.216 14.355 6.05 14.574 13.994.22 7.946-5.95 14.561-13.78 14.777-7.83.216-8.795-6.202-9.014-14.148z" fill="#ccc" stroke-width="1.335" stroke="#000"/><path d="M774.33 626.93c0 9.857-8.109 17.848-18.111 17.848-10.003 0-18.111-7.991-18.111-17.848" fill="#ccc" stroke-width="1.57" stroke="#000" transform="rotate(-91.581 907.828 634.729) scale(.8992 .79461)"/><path d="M679.28 867.752c.123-7.947-.565-14.402-8.397-14.522-7.832-.121-14.28 6.224-14.402 14.17-.123 7.948 6.127 14.488 13.958 14.608 7.833.121 8.72-6.309 8.842-14.256z" fill="#ccc" stroke-width="1.335" stroke="#000"/><path d="M774.33 626.93c0 9.857-8.109 17.848-18.111 17.848-10.003 0-18.111-7.991-18.111-17.848" fill="#ccc" stroke-width="1.57" stroke="#000" transform="rotate(-89.117 1367.333 190.933) scale(.8992 -.79461)"/><path d="M767.481 907.933c-.219-7.945.39-14.408 8.22-14.624 7.83-.216 14.355 6.05 14.575 13.994.219 7.946-5.95 14.561-13.78 14.777-7.83.216-8.795-6.202-9.015-14.147z" fill="#ccc" stroke-width="1.335" stroke="#000"/><path d="M774.33 626.93c0 9.857-8.109 17.848-18.111 17.848-10.003 0-18.111-7.991-18.111-17.848" fill="#ccc" stroke-width="1.57" stroke="#000" transform="rotate(-91.581 928.667 654.714) scale(.8992 .79461)"/><g fill="#ccc" stroke="#000"><path d="M678.343 909.135c.123-7.947-.565-14.402-8.398-14.522-7.831-.121-14.28 6.224-14.402 14.17-.122 7.948 6.127 14.488 13.959 14.609 7.832.12 8.719-6.31 8.841-14.257z" stroke-width="1.335"/><path d="M774.33 626.93c0 9.857-8.109 17.848-18.111 17.848-10.003 0-18.111-7.991-18.111-17.848" stroke-width="1.57" transform="rotate(-89.117 1387.877 212.1) scale(.8992 -.79461)"/></g><path d="M103.94 521.642h113.658v147.312c-.107 7.47-3.242 12.692-13.038 12.964H103.94V521.642" fill="#ccc" stroke-width="1.335" stroke="#000"/><path d="M-53.934 448.316c0-4.56-3.81-8.262-8.504-8.262H-93.15c-4.694 0-8.504 3.702-8.504 8.262v16.524c0 4.561 3.81 8.263 8.504 8.263h30.712c4.694 0 8.504-3.702 8.504-8.263v-16.524z" fill="#efefef" stroke-width="1.41" stroke="#000" transform="matrix(.93233 0 0 .95962 206.11 109.069)"/><path d="M-53.934 448.316c0-4.56-3.81-8.262-8.504-8.262H-93.15c-4.694 0-8.504 3.702-8.504 8.262v16.524c0 4.561 3.81 8.263 8.504 8.263h30.712c4.694 0 8.504-3.702 8.504-8.263v-16.524z" fill="#efefef" stroke-width="1.41" stroke="#000" transform="matrix(.93233 0 0 .95962 257.617 109.161)"/><path d="M-53.934 443.587c0-1.95-2.435-3.533-5.434-3.533H-96.22c-2.999 0-5.434 1.583-5.434 3.533v25.983c0 1.95 2.435 3.533 5.434 3.533h36.852c2.999 0 5.434-1.583 5.434-3.533v-25.983z" fill="#efefef" stroke-width=".52" stroke="#000" transform="matrix(1.99357 0 0 3.06674 313.99 -779.467)"/><path d="M308.419 649.299c-4.134-6.788-6.813-12.701-.123-16.775 6.69-4.075 15.464-1.874 19.598 4.914 4.134 6.788 2.062 15.594-4.627 19.668-6.69 4.074-10.714-1.019-14.848-7.807z" fill="#ccc" stroke-width="1.335" stroke="#000"/><path d="M774.33 626.93c0 9.857-8.109 17.848-18.111 17.848-10.003 0-18.111-7.991-18.111-17.848" fill="#ccc" stroke-width="1.57" stroke="#000" transform="matrix(-.46772 -.76798 .67865 -.41332 246.523 1483.173)"/><path d="M311.4 731.506c-4.135 6.788-6.814 12.7-.124 16.775 6.69 4.074 15.465 1.874 19.599-4.914 4.134-6.789 2.062-15.594-4.627-19.668-6.69-4.074-10.714 1.018-14.849 7.807z" fill="#ccc" stroke-width="1.335" stroke="#000"/><path d="M774.33 626.93c0 9.857-8.109 17.848-18.111 17.848-10.003 0-18.111-7.991-18.111-17.848" fill="#ccc" stroke-width="1.57" stroke="#000" transform="matrix(-.46772 .76798 .67865 .41332 249.504 -102.368)"/><circle cx="252.277" cy="603.891" r="32.544" fill="#ccc" stroke-width="1.68" stroke="#000" transform="translate(106.752 209.381) scale(.7946)"/><path d="M100.94 786.353v-267.71h162.08v6H106.94v255.71h235.707v-255.71H332.19v-6h16.457v267.71H100.94z"/><path fill="#ccc" stroke-width="1.21" stroke="#000" d="M691.141 161.824h121.453v8.584H691.141z" transform="matrix(1.04067 0 0 1.165 -550.7 590.097)"/><path d="M314.607 214.178H200.95V361.49c.107 7.47 3.242 12.692 13.038 12.964h100.62V214.178" fill="#ccc" stroke-width="1.335" stroke="#000"/><path d="M-53.934 448.316c0-4.56-3.81-8.262-8.504-8.262H-93.15c-4.694 0-8.504 3.702-8.504 8.262v16.524c0 4.561 3.81 8.263 8.504 8.263h30.712c4.694 0 8.504-3.702 8.504-8.263v-16.524z" fill="#efefef" stroke-width="1.41" stroke="#000" transform="matrix(-.93233 0 0 .95962 212.437 -198.395)"/><path d="M-53.934 448.316c0-4.56-3.81-8.262-8.504-8.262H-93.15c-4.694 0-8.504 3.702-8.504 8.262v16.524c0 4.561 3.81 8.263 8.504 8.263h30.712c4.694 0 8.504-3.702 8.504-8.263v-16.524z" fill="#efefef" stroke-width="1.41" stroke="#000" transform="matrix(-.93233 0 0 .95962 160.93 -198.303)"/><path d="M-53.934 443.587c0-1.95-2.435-3.533-5.434-3.533H-96.22c-2.999 0-5.434 1.583-5.434 3.533v25.983c0 1.95 2.435 3.533 5.434 3.533h36.852c2.999 0 5.434-1.583 5.434-3.533v-25.983z" fill="#efefef" stroke-width=".52" stroke="#000" transform="matrix(-1.99357 0 0 3.06674 104.558 -1086.931)"/><path d="M317.608 429.407h-.001l-63.608-.01V441h-6v-17.604H248l63.608.01V217.178H106.94v301.464h156.503v6H100.941V211.178h216.667v218.23z"/><path d="M248 510h6v14.641h-6z"/><path fill="#ccc" stroke-width="1.32" stroke="#000" d="M691.141 161.824h121.453v8.584H691.141z" transform="matrix(0 .83262 -1.165 0 297.467 -274.8)"/><path d="M410.856 586.85v107.682h-65.209v-172.89h146.217c.315 60.735 4.935 65.223-21.072 65.209h-59.936z" fill="#ccc" stroke-width="1.335" stroke="#000"/><g transform="translate(103.94 186.88) scale(.7946)" stroke="#000"><path d="M459.777 448.763c0-3.574-3.383-6.476-7.549-6.476h-56.633c-4.167 0-7.549 2.902-7.549 6.476v44.761c0 3.574 3.382 6.476 7.549 6.476h56.633c4.166 0 7.549-2.902 7.549-6.476v-44.761z" fill="#efefef" stroke-width="1.59" transform="matrix(.96899 0 0 1.12948 13.138 -64.743)"/><ellipse cx="406.96" cy="452.784" rx="10.449" ry="10.497" fill="#333" stroke-width="1.68"/><ellipse cx="406.96" cy="452.784" rx="10.449" ry="10.497" fill="#333" stroke-width="1.68" transform="translate(31.683)"/><ellipse cx="406.96" cy="452.784" rx="10.449" ry="10.497" fill="#333" stroke-width="1.68" transform="translate(31.683 30.86)"/><ellipse cx="406.96" cy="452.784" rx="10.449" ry="10.497" fill="#333" stroke-width="1.68" transform="translate(0 31.163)"/></g><path d="M898.549 783.35H679.003v-53.48c.089-7.743 3.558-11.445 10.407-11.102h144.554v-56.205c-.246-7.414 3.118-10.769 10.091-10.066h54.494v130.855z" fill="#ccc" stroke-width="1.335" stroke="#000"/><path fill="#ccc" stroke-width="1.81" stroke="#000" d="M751.781 586.066h123.35v60.793h-123.35z" transform="matrix(.67609 0 0 .7946 220.474 186.227)"/><path d="M733.47 768.378a4.994 4.994 0 0 0-4.99-4.992h-41.308a4.994 4.994 0 0 0-4.99 4.992v9.982a4.993 4.993 0 0 0 4.99 4.99h41.308a4.993 4.993 0 0 0 4.99-4.99v-9.982zm165.079 10.254a4.99 4.99 0 0 1-4.991 4.99h-41.309a4.99 4.99 0 0 1-4.99-4.99v-9.983a4.99 4.99 0 0 1 4.99-4.99h26.335v-26.607a4.99 4.99 0 0 1 4.991-4.99h9.983a4.99 4.99 0 0 1 4.99 4.99v41.58zm-109.774-9.982a4.994 4.994 0 0 0-4.99-4.992h-41.308a4.994 4.994 0 0 0-4.991 4.991v9.982a4.993 4.993 0 0 0 4.99 4.991h41.308a4.993 4.993 0 0 0 4.991-4.99v-9.983zm54.738-.272a4.994 4.994 0 0 0-4.991-4.992h-41.308a4.994 4.994 0 0 0-4.991 4.992v9.982a4.993 4.993 0 0 0 4.991 4.99h41.308a4.993 4.993 0 0 0 4.99-4.99v-9.982zm50.041-40.755a4.994 4.994 0 0 0 4.992-4.991v-41.308a4.994 4.994 0 0 0-4.992-4.99h-9.982a4.993 4.993 0 0 0-4.991 4.99v41.308a4.993 4.993 0 0 0 4.991 4.99h9.982z" fill="#efefef" stroke-width="1.335" stroke="#000"/><path d="M-333.938 421.293h219.97v205.394h-99.687l-120.283-112.313v-93.081z" fill="#ccc" stroke-width="2.69" stroke="#000" transform="matrix(.47577 0 0 .51308 952.773 305.484)"/><path d="M342.646 786.353v-267.71h184.939v6H348.646v255.71h546.901v-255.71H611.634v-6H901.55v267.71H342.646z"/><path d="M443.778 691.532v6h-101.13v-6z"/><path fill="#ccc" stroke-width="1.58" stroke="#000" d="M675.591 421.293h158.857v41.989H675.591z" transform="matrix(.88596 0 0 .7946 27.716 186.88)"/><g fill="#ccc" stroke="#000"><path stroke-width="1.335" d="M569.795 606.729l65.145 32.804-43.657 86.697-65.145-32.805zm58.418 58.547c3.72-7.023 7.433-12.348 14.355-8.681 6.921 3.667 9.515 12.333 5.795 19.356-3.722 7.024-12.349 9.744-19.27 6.077-6.922-3.667-4.601-9.729-.88-16.752z"/><path d="M774.33 626.93c0 9.857-8.109 17.848-18.111 17.848-10.003 0-18.111-7.991-18.111-17.848" stroke-width="1.57" transform="matrix(.42098 -.79456 .70215 .37202 -120.124 1038.322)"/><path d="M534.72 664.704c-3.721 7.023-7.434 12.348-14.355 8.68-6.921-3.667-9.516-12.333-5.795-19.356 3.721-7.024 12.349-9.744 19.27-6.077 6.921 3.667 4.6 9.73.88 16.753z" stroke-width="1.335"/><path d="M774.33 626.93c0 9.857-8.109 17.848-18.111 17.848-10.003 0-18.111-7.991-18.111-17.848" stroke-width="1.57" transform="matrix(-.42098 .79456 -.70215 -.37202 1283.056 291.656)"/><path d="M609.096 701.99c3.721-7.023 7.434-12.348 14.355-8.68 6.922 3.666 9.516 12.332 5.795 19.355-3.721 7.024-12.348 9.744-19.27 6.077-6.921-3.667-4.6-9.729-.88-16.752z" stroke-width="1.335"/><path d="M774.33 626.93c0 9.857-8.109 17.848-18.111 17.848-10.003 0-18.111-7.991-18.111-17.848" stroke-width="1.57" transform="matrix(.42098 -.79456 .70215 .37202 -139.24 1075.035)"/><path d="M553.838 627.992c-3.72 7.023-7.433 12.348-14.355 8.68-6.921-3.666-9.515-12.333-5.795-19.356 3.722-7.023 12.349-9.743 19.27-6.077 6.922 3.668 4.601 9.73.88 16.753z" stroke-width="1.335"/><path d="M774.33 626.93c0 9.857-8.109 17.848-18.111 17.848-10.003 0-18.111-7.991-18.111-17.848" stroke-width="1.57" transform="matrix(-.42098 .79456 -.70215 -.37202 1302.174 254.943)"/></g><g stroke="#000"><path fill="#ccc" stroke-width="1.14" d="M691.141 161.824h121.453v8.584H691.141z" transform="matrix(1.24131 0 0 1.094 -176.744 601.99)"/><path fill="#ccc" stroke-width="1.25" d="M691.141 161.824h121.453v8.584H691.141z" transform="matrix(1.04067 0 0 1.094 -210.7 601.891)"/><path d="M354.496 779.027v-76.442c52.662 5.018 73.92 32.907 75.644 76.442h-75.644z" fill="none" stroke-width="1.335"/><path fill="#ccc" stroke-width="2.12" d="M-246.81 511.707h96.657v18.06h-96.657z" transform="matrix(.7946 0 0 -.396 550.058 988.806)"/></g><path fill="#b3b3b3" stroke-width="1.47" stroke="#000" d="M306.205 189.592h98.725v23.099h-98.725z" transform="matrix(1 0 0 .79992 8.549 42.044)"/><path fill="#bfbfbf" stroke-width="1.47" stroke="#000" d="M306.205 189.592h98.725v23.099h-98.725z" transform="matrix(1 0 0 .79992 8.549 23.567)"/><path fill="#ccc" stroke-width="1.47" stroke="#000" d="M306.205 189.592h98.725v23.099h-98.725z" transform="matrix(1 0 0 .79992 8.549 5.09)"/><path fill="#d9d9d9" stroke-width="1.47" stroke="#000" d="M306.205 189.592h98.725v23.099h-98.725z" transform="matrix(1 0 0 .79992 8.549 -13.514)"/><path d="M563.786 141.332c.122-7.946-.566-14.401-8.398-14.522-7.832-.12-14.28 6.224-14.402 14.17-.123 7.948 6.127 14.488 13.958 14.609 7.833.12 8.72-6.31 8.842-14.257z" fill="#ccc" stroke-width="1.335" stroke="#000"/><path d="M774.33 626.93c0 9.857-8.109 17.848-18.111 17.848-10.003 0-18.111-7.991-18.111-17.848" fill="#ccc" stroke-width="1.57" stroke="#000" transform="matrix(.01386 .8991 .79452 -.01225 812.62 -1052.502)"/><path d="M605.176 105c-7.946.122-14.401-.566-14.522-8.398-.12-7.832 6.224-14.28 14.171-14.403 7.947-.122 14.487 6.128 14.608 13.96.12 7.831-6.31 8.718-14.257 8.84z" fill="#ccc" stroke-width="1.335" stroke="#000"/><path d="M774.33 626.93c0 9.857-8.109 17.848-18.111 17.848-10.003 0-18.111-7.991-18.111-17.848" fill="#ccc" stroke-width="1.57" stroke="#000" transform="rotate(179.125 644.054 295.514) scale(.8992 .79461)"/><path d="M715.628 143.271c-.123-7.947.565-14.401 8.398-14.522 7.831-.12 14.28 6.224 14.402 14.17.122 7.948-6.127 14.488-13.959 14.609-7.832.12-8.719-6.31-8.841-14.257z" fill="#ccc" stroke-width="1.335" stroke="#000"/><path d="M774.33 626.93c0 9.857-8.109 17.848-18.111 17.848-10.003 0-18.111-7.991-18.111-17.848" fill="#ccc" stroke-width="1.57" stroke="#000" transform="rotate(-90.883 528.769 297.393) scale(.8992 .79461)"/><path d="M669.563 105c-7.946.122-14.401-.566-14.522-8.398-.12-7.832 6.224-14.28 14.171-14.403 7.948-.122 14.487 6.128 14.608 13.96.12 7.831-6.309 8.718-14.257 8.84z" fill="#ccc" stroke-width="1.335" stroke="#000"/><path d="M774.33 626.93c0 9.857-8.109 17.848-18.111 17.848-10.003 0-18.111-7.991-18.111-17.848" fill="#ccc" stroke-width="1.57" stroke="#000" transform="rotate(179.125 676.248 295.762) scale(.8992 .79461)"/><path fill="#ccc" stroke-width="1.27" stroke="#000" d="M560.409 180.809h140.042v19.529H560.409z" transform="matrix(1 0 0 1.10058 8.549 -18.663)"/><path d="M568.8 201.825h140.854l6 9.23H563.8l5-9.23z" fill="#ccc" stroke-width="1.33" stroke="#000"/><path fill="#ccc" stroke-width="1.36" stroke="#000" d="M545.374 114.858h160.684v58.725H545.374z" transform="matrix(.87154 0 0 1.08163 93.643 -14.84)"/><path fill="none" stroke-width="1.33" stroke="#000" d="M311.706 17.026H890V212.69H311.706z" transform="matrix(1.00951 0 0 1 .083 1.488)"/><path d="M311.754 211.177H416.48v6H311.754z"/><path fill="#ccc" stroke-width="2.12" stroke="#000" d="M-246.81 511.707h96.657v18.06h-96.657z" transform="matrix(.7946 0 0 -.396 521.595 420.385)"/><path d="M449.517 63.292l18.077.061s1.923 19.004 1.923 23.59c0 12.624-8.976 22.857-20.049 22.857-11.073 0-20.049-10.233-20.049-22.857 0-4.586 2.943-23.518 2.943-23.518l17.155-.133z" fill="#ccc" stroke-width="1.56" stroke="#000" transform="matrix(.84877 0 0 .8604 75.195 171.69)"/><path d="M440.457 214.473h33.312l-1.59 11.72h-30.133l-1.589-11.72zm113.878-.296h71.925v71.764h-57.022l-14.903-13.837v-57.927z" fill="#ccc" stroke-width="1.335" stroke="#000"/><path d="M560.762 220.65h58.952v58.819h-46.737l-12.215-11.341v-47.479z" fill="#efefef" stroke-width="1.335" stroke="#000"/><path d="M626.26 366.201c-3.189 1.155-6.225 1.709-9.389 1.709-14.996 0-27.153-12.454-27.153-27.817 0-15.362 12.157-27.816 27.153-27.816 3.164 0 6.2.553 9.39 1.708v52.216z" fill="#ccc" stroke-width="1.335" stroke="#000"/><path d="M565.268 246.126c-4.013 1.453-1.163 2.15-5.144 2.15-18.873 0-34.172-15.673-34.172-35.007 0-19.333 15.299-35.006 34.172-35.006 3.981 0 1.131.697 5.144 2.15v65.713z" fill="#efefef" stroke-width="2.14" stroke="#000" transform="matrix(.59549 0 0 .65212 280.304 201.015)"/><path d="M623.26 423.084V217.178H416.232V339.24h-6V211.177H629.26v217.907H410.232V407.21h6v15.874H623.26z"/><path fill="#ccc" stroke-width="1.53" stroke="#000" d="M691.141 161.824h121.453v8.584H691.141z" transform="matrix(.39294 0 0 1.165 161.407 20.651)"/><path d="M0 460.293h143.036v185.39c-.135 9.401-4.08 15.972-16.408 16.314H17.408C7.022 661.688 1.219 653.975 0 638.859V460.293" fill="#ccc" stroke-width="1.46" stroke="#000" transform="matrix(0 -1.02247 -.7946 0 1264.299 413.68)"/><path d="M-53.934 448.316c0-4.56-2.961-8.262-6.609-8.262h-34.502c-3.648 0-6.609 3.702-6.609 8.262v16.524c0 4.561 2.961 8.263 6.609 8.263h34.502c3.648 0 6.609-3.702 6.609-8.263v-16.524z" fill="#efefef" stroke-width="1.23" stroke="#000" transform="matrix(0 -1.19968 -.95962 0 1311.12 279.828)"/><path d="M-53.934 448.316c0-4.56-2.961-8.262-6.609-8.262h-34.502c-3.648 0-6.609 3.702-6.609 8.262v16.524c0 4.561 2.961 8.263 6.609 8.263h34.502c3.648 0 6.609-3.702 6.609-8.263v-16.524z" fill="#efefef" stroke-width="1.23" stroke="#000" transform="matrix(0 -1.19968 -.95962 0 1311.027 213.553)"/><path d="M-53.934 443.817c0-2.077-2.016-3.763-4.499-3.763h-38.722c-2.483 0-4.499 1.686-4.499 3.763v25.522c0 2.077 2.016 3.764 4.499 3.764h38.722c2.483 0 4.499-1.687 4.499-3.764v-25.522z" fill="#efefef" stroke-width=".47" stroke="#000" transform="matrix(0 -2.56524 -3.06674 0 2199.656 141.014)"/><path d="M895.55 518.642V217.178H629.26V439.56h-6V211.177h278.284v313.465H623.26v-16.315h6v10.315h266.29z"/><path fill="#ccc" stroke-width="1.32" stroke="#000" d="M691.141 161.824h121.453v8.584H691.141z" transform="matrix(.83262 0 0 1.165 158.428 20.651)"/><path d="M523.873 521.64H335.611v76.018c-52.106-4.965-73.467-32.32-75.624-76.018h-8.564v-8.335h-72.861c4.85-50.905 31.07-72.466 72.86-75.453v-11.769h63.186V214.177h11.662v75.005c51.92-4.947 73.314-32.125 75.576-75.005h11.385V335.47c42.585 2.44 69.528 23.878 74.452 75.55h-74.452v15.063H626.26v10.01c41.828 2.648 68.46 24.14 73.352 75.484H626.26v10.063h-11.304" fill="none" stroke-width="1.33" stroke="#000"/><path class="click-target" d="M103.941 521.642h241.706v260.959H103.941zm0-307.465h210.667v307.464H103.941zm522.319 0h272.289v307.464H626.26zM345.647 521.642h552.902v261.981H345.647zM414 214.177h212.26V426H414zM103.941 783.623h794.608v197.865H103.941zM310 20h587v190.177H310z"/></svg>